<svg width="142" height="112" viewBox="0 0 142 112" fill="none" xmlns="http://www.w3.org/2000/svg">
<path d="M0 98.897C0.58295 98.4073 1.15573 97.906 1.71801 97.3933C4.4604 94.893 6.12631 91.4955 7.93751 88.2564C11.7493 81.4396 17.9714 77 25 77C31.2048 77 36.7812 80.46 40.6256 85.961C43.7749 90.4675 46.091 95.6652 50.3272 99.1697C60.0147 107.184 72.4448 112 86 112C116.928 112 142 86.9277 142 56C142 25.0723 116.928 0 86 0C66.5361 0 49.3916 9.92969 39.356 25H39.1079C35.3799 29.3496 30.4307 32 25 32C19.5693 32 14.6201 29.3496 10.8921 25H10.644C7.67627 20.5435 4.08691 16.5366 0 13.103V98.897Z" fill="white"/>
</svg>